<svg width="1324" height="1325" xmlns="http://www.w3.org/2000/svg" xmlns:xlink="http://www.w3.org/1999/xlink" xml:space="preserve" overflow="hidden"><defs><linearGradient x1="1332.25" y1="843.932" x2="1332.25" y2="1472.67" gradientUnits="userSpaceOnUse" spreadMethod="reflect" id="stroke0"><stop offset="0" stop-color="#64B5F6" stop-opacity="1"/><stop offset="0.2" stop-color="#64B5F6" stop-opacity="1"/><stop offset="0.5" stop-color="#2196F3" stop-opacity="1"/><stop offset="0.7" stop-color="#1565C0" stop-opacity="1"/><stop offset="1" stop-color="#1565C0" stop-opacity="1"/></linearGradient><linearGradient x1="941.716" y1="1082.14" x2="1256.08" y2="767.771" gradientUnits="userSpaceOnUse" spreadMethod="reflect" id="stroke1"><stop offset="0" stop-color="#FFD54F" stop-opacity="1"/><stop offset="0.25" stop-color="#FFD54F" stop-opacity="1"/><stop offset="0.8" stop-color="#64B5F6" stop-opacity="1"/><stop offset="1" stop-color="#64B5F6" stop-opacity="1"/></linearGradient><linearGradient x1="865.555" y1="1472.67" x2="865.555" y2="843.932" gradientUnits="userSpaceOnUse" spreadMethod="reflect" id="stroke2"><stop offset="0" stop-color="#FF8F00" stop-opacity="1"/><stop offset="0.3" stop-color="#FF8F00" stop-opacity="1"/><stop offset="0.5" stop-color="#FFC107" stop-opacity="1"/><stop offset="0.8" stop-color="#FFD54F" stop-opacity="1"/><stop offset="1" stop-color="#FFD54F" stop-opacity="1"/></linearGradient></defs><g transform="translate(-440 -577)"><g><path d="M1332.25 924.955C1461.12 1053.83 1461.12 1262.77 1332.25 1391.65" stroke="url(#stroke0)" stroke-width="114.583" stroke-linecap="round" stroke-linejoin="round" stroke-miterlimit="10" fill="none" fill-rule="evenodd"/><path d="M865.555 924.955C994.428 796.082 1203.37 796.082 1332.25 924.955" stroke="url(#stroke1)" stroke-width="114.583" stroke-linecap="round" stroke-linejoin="round" stroke-miterlimit="10" fill="none" fill-rule="evenodd"/><path d="M865.555 1391.65C736.682 1262.77 736.682 1053.83 865.555 924.955" stroke="url(#stroke2)" stroke-width="114.583" stroke-linecap="round" stroke-linejoin="round" stroke-miterlimit="10" fill="none" fill-rule="evenodd"/><path d="M644 1467C644 1380.29 714.067 1310 800.5 1310 886.932 1310 957 1380.29 957 1467 957 1553.71 886.932 1624 800.5 1624 714.067 1624 644 1553.71 644 1467Z" fill="#FF8F00" fill-rule="evenodd" fill-opacity="1"/><path d="M1241 1467.5C1241 1381.07 1311.07 1311 1397.5 1311 1483.93 1311 1554 1381.07 1554 1467.5 1554 1553.93 1483.93 1624 1397.5 1624 1311.07 1624 1241 1553.93 1241 1467.5Z" fill="#1565C0" fill-rule="evenodd" fill-opacity="1"/></g></g></svg>