<svg width="1320" height="1325" xmlns="http://www.w3.org/2000/svg" xmlns:xlink="http://www.w3.org/1999/xlink" xml:space="preserve" overflow="hidden"><defs><linearGradient x1="3532.25" y1="843.932" x2="3532.25" y2="1472.67" gradientUnits="userSpaceOnUse" spreadMethod="reflect" id="stroke0"><stop offset="0" stop-color="#64B5F6" stop-opacity="1"/><stop offset="0.2" stop-color="#64B5F6" stop-opacity="1"/><stop offset="0.5" stop-color="#2196F3" stop-opacity="1"/><stop offset="0.7" stop-color="#1565C0" stop-opacity="1"/><stop offset="1" stop-color="#1565C0" stop-opacity="1"/></linearGradient><linearGradient x1="3141.72" y1="1082.14" x2="3456.08" y2="767.771" gradientUnits="userSpaceOnUse" spreadMethod="reflect" id="stroke1"><stop offset="0" stop-color="#FFD54F" stop-opacity="1"/><stop offset="0.25" stop-color="#FFD54F" stop-opacity="1"/><stop offset="0.8" stop-color="#64B5F6" stop-opacity="1"/><stop offset="1" stop-color="#64B5F6" stop-opacity="1"/></linearGradient><linearGradient x1="3065.55" y1="1472.67" x2="3065.55" y2="843.932" gradientUnits="userSpaceOnUse" spreadMethod="reflect" id="stroke2"><stop offset="0" stop-color="#FF8F00" stop-opacity="1"/><stop offset="0.3" stop-color="#FF8F00" stop-opacity="1"/><stop offset="0.5" stop-color="#FFC107" stop-opacity="1"/><stop offset="0.8" stop-color="#FFD54F" stop-opacity="1"/><stop offset="1" stop-color="#FFD54F" stop-opacity="1"/></linearGradient></defs><g transform="translate(-2640 -577)"><g><path d="M2640 1238C2640 873.492 2935.49 578 3300 578 3664.51 578 3960 873.492 3960 1238 3960 1602.51 3664.51 1898 3300 1898 2935.49 1898 2640 1602.51 2640 1238Z" fill="#1E1E1E" fill-rule="evenodd" fill-opacity="1"/><path d="M3532.25 924.955C3661.12 1053.83 3661.12 1262.77 3532.25 1391.65" stroke="url(#stroke0)" stroke-width="114.583" stroke-linecap="round" stroke-linejoin="round" stroke-miterlimit="10" fill="none" fill-rule="evenodd"/><path d="M3065.55 924.955C3194.43 796.082 3403.37 796.082 3532.25 924.955" stroke="url(#stroke1)" stroke-width="114.583" stroke-linecap="round" stroke-linejoin="round" stroke-miterlimit="10" fill="none" fill-rule="evenodd"/><path d="M3065.55 1391.65C2936.68 1262.77 2936.68 1053.83 3065.55 924.955" stroke="url(#stroke2)" stroke-width="114.583" stroke-linecap="round" stroke-linejoin="round" stroke-miterlimit="10" fill="none" fill-rule="evenodd"/><path d="M2844 1467C2844 1380.29 2914.07 1310 3000.5 1310 3086.93 1310 3157 1380.29 3157 1467 3157 1553.71 3086.93 1624 3000.5 1624 2914.07 1624 2844 1553.71 2844 1467Z" fill="#FF8F00" fill-rule="evenodd" fill-opacity="1"/><path d="M3441 1467.5C3441 1381.07 3511.07 1311 3597.5 1311 3683.93 1311 3754 1381.07 3754 1467.5 3754 1553.93 3683.93 1624 3597.5 1624 3511.07 1624 3441 1553.93 3441 1467.5Z" fill="#1565C0" fill-rule="evenodd" fill-opacity="1"/></g></g></svg>